# xmcd CD database file
#
# Track frame offsets:
#	150
#	12406
#	48217
#	62449
#	76577
#	91440
#	110736
#	123040
#	135395
#	152532
#	165817
#	180354
#	197222
#	218645
#
# Disc length: 3138 seconds
#
# Revision: 2
# Processed by: cddbd v1.4PL0 Copyright (c) Steve Scherf et al.
# Submitted via: CDex 1.50Beta3
#
DISCID=9e0c400e
DTITLE=Marcos Brasil - Marcos Brasil Cinco Anos
DYEAR=1900
DGENRE=
TTITLE0=Abertura
TTITLE1=O Lutador
TTITLE2=O Show Vai Começa
TTITLE3=Fogo De Amor
TTITLE4=O Que É Que Ela Tem
TTITLE5=Novilha
TTITLE6=Saco De Ouro
TTITLE7=Cavalo Enxuto
TTITLE8=Moreninha Safadinha
TTITLE9=Saudade De Tião Carreiro
TTITLE10=Espinhos Da Vida
TTITLE11=Olha Amor
TTITLE12=Homem Do Meu Tempo
TTITLE13=Caminheiro
EXTD=
EXTT0=
EXTT1=
EXTT2=
EXTT3=
EXTT4=
EXTT5=
EXTT6=
EXTT7=
EXTT8=
EXTT9=
EXTT10=
EXTT11=
EXTT12=
EXTT13=
PLAYORDER=
